<svg width="50" height="50" viewBox="0 0 50 50" fill="none" xmlns="http://www.w3.org/2000/svg">
<path d="M8.29167 17.1312C6.34262 19.4316 4.89129 22.1108 4.02917 25C6.72084 34.0375 15.0917 40.625 25 40.625C27.0688 40.625 29.0688 40.3375 30.9646 39.8021M12.975 12.975C16.543 10.6205 20.7252 9.3685 25 9.375C34.9083 9.375 43.2771 15.9625 45.9688 24.9958C44.4937 29.932 41.3272 34.1908 37.025 37.025M12.975 12.975L6.25001 6.25M12.975 12.975L20.5792 20.5792M37.025 37.025L43.75 43.75M37.025 37.025L29.4208 29.4208C30.0013 28.8404 30.4617 28.1514 30.7758 27.393C31.0899 26.6347 31.2516 25.8219 31.2516 25.001C31.2516 24.1802 31.0899 23.3674 30.7758 22.6091C30.4617 21.8507 30.0013 21.1617 29.4208 20.5812C28.8404 20.0008 28.1514 19.5404 27.393 19.2263C26.6347 18.9122 25.8219 18.7505 25.001 18.7505C24.1802 18.7505 23.3674 18.9122 22.6091 19.2263C21.8507 19.5404 21.1617 20.0008 20.5813 20.5812M29.4188 29.4187L20.5833 20.5833" stroke="black" stroke-width="1.5" stroke-linecap="round" stroke-linejoin="round"/>
</svg>
