<svg width="50" height="50" viewBox="0 0 50 50" fill="none" xmlns="http://www.w3.org/2000/svg">
<path d="M4.24162 25.6708C4.09785 25.2387 4.09785 24.7717 4.24162 24.3396C7.1312 15.6458 15.3333 9.375 25 9.375C34.6625 9.375 42.8604 15.6396 45.7562 24.3292C45.902 24.7604 45.902 25.2271 45.7562 25.6604C42.8687 34.3542 34.6666 40.625 25 40.625C15.3375 40.625 7.13745 34.3604 4.24162 25.6708Z" stroke="#E29EFF" stroke-width="1.5" stroke-linecap="round" stroke-linejoin="round"/>
<path d="M31.25 25C31.25 26.6576 30.5915 28.2473 29.4194 29.4194C28.2473 30.5915 26.6576 31.25 25 31.25C23.3424 31.25 21.7527 30.5915 20.5806 29.4194C19.4085 28.2473 18.75 26.6576 18.75 25C18.75 23.3424 19.4085 21.7527 20.5806 20.5806C21.7527 19.4085 23.3424 18.75 25 18.75C26.6576 18.75 28.2473 19.4085 29.4194 20.5806C30.5915 21.7527 31.25 23.3424 31.25 25Z" stroke="#E29EFF" stroke-width="1.5" stroke-linecap="round" stroke-linejoin="round"/>
</svg>
