<svg width="80" height="80" viewBox="0 0 80 80" fill="none" xmlns="http://www.w3.org/2000/svg">
<path d="M7.5 52.5L24.6967 35.3033C25.3931 34.6069 26.2199 34.0544 27.1299 33.6775C28.0398 33.3006 29.0151 33.1066 30 33.1066C30.9849 33.1066 31.9602 33.3006 32.8701 33.6775C33.7801 34.0544 34.6069 34.6069 35.3033 35.3033L52.5 52.5M47.5 47.5L52.1967 42.8033C52.8931 42.1069 53.7199 41.5544 54.6299 41.1775C55.5398 40.8006 56.5151 40.6066 57.5 40.6066C58.4849 40.6066 59.4602 40.8006 60.3701 41.1775C61.2801 41.5544 62.1069 42.1069 62.8033 42.8033L72.5 52.5M12.5 65H67.5C68.8261 65 70.0978 64.4732 71.0355 63.5355C71.9732 62.5979 72.5 61.3261 72.5 60V20C72.5 18.6739 71.9732 17.4021 71.0355 16.4645C70.0978 15.5268 68.8261 15 67.5 15H12.5C11.1739 15 9.90215 15.5268 8.96447 16.4645C8.02678 17.4021 7.5 18.6739 7.5 20V60C7.5 61.3261 8.02678 62.5979 8.96447 63.5355C9.90215 64.4732 11.1739 65 12.5 65ZM47.5 27.5H47.5267V27.5267H47.5V27.5ZM48.75 27.5C48.75 27.8315 48.6183 28.1495 48.3839 28.3839C48.1495 28.6183 47.8315 28.75 47.5 28.75C47.1685 28.75 46.8505 28.6183 46.6161 28.3839C46.3817 28.1495 46.25 27.8315 46.25 27.5C46.25 27.1685 46.3817 26.8505 46.6161 26.6161C46.8505 26.3817 47.1685 26.25 47.5 26.25C47.8315 26.25 48.1495 26.3817 48.3839 26.6161C48.6183 26.8505 48.75 27.1685 48.75 27.5Z" stroke="white" stroke-width="1.5" stroke-linecap="round" stroke-linejoin="round"/>
</svg>
